# xmcd
#
# Track frame offsets:
#	150
#	18425
#	33337
#	51500
#	67237
#	82820
#	97432
#	114575
#	129177
#	145275
#	161307
#	181675
#	203272
#
# Disc length: 2977 seconds
#
# Revision: 3
# Processed by: cddbd v1.5.2PL0 Copyright (c) Steve Scherf et al.
# Submitted via: audiograbber 1.83.01
#
DISCID=aa0b9f0d
DTITLE=Lonestar - Lonely Grill
DYEAR=1999
DGENRE=Country
TTITLE0=Saturday Night
TTITLE1=Simple As That
TTITLE2=Amazed (Huff Mix)
TTITLE3=What About Now
TTITLE4=Tell Her
TTITLE5=Don't Let's Talk About Lisa
TTITLE6=I've Gotta Find You
TTITLE7=You Don't Know What Love Is
TTITLE8=All The Way
TTITLE9=Smile
TTITLE10=Lonely Grill
TTITLE11=Everything's Changed (Acoustic Version)
TTITLE12=Amazed (Captain Mix)
EXTD=Mario´s Musik
EXTT0=
EXTT1=
EXTT2=
EXTT3=
EXTT4=
EXTT5=
EXTT6=
EXTT7=
EXTT8=
EXTT9=
EXTT10=
EXTT11=
EXTT12=
PLAYORDER=
